<svg xmlns="http://www.w3.org/2000/svg" data-name="Layer 1" viewBox="0 0 500 500"><path d="M136.53 121.135c-.573-.543-1.195-1.127-1.81-1.718-12.617-12.121-22.382-26.136-28.28-42.702-1.65-4.636-2.897-9.365-2.675-14.359.02-.473.02-.949.052-1.422.445-6.446 4.759-9.703 11.058-8.176a27.3 27.3 0 0 1 5.732 2.196c6.89 3.456 12.506 8.564 17.67 14.166A112.5 112.5 0 0 1 160 102.55a8 8 0 0 0 .39.86c.07.13.222.213.559.52a176.36 176.36 0 0 1 81.02-24.861c-.177-.876-.282-1.546-.448-2.2a112.5 112.5 0 0 1-2.653-36.957 84 84 0 0 1 4.445-21.764 31.3 31.3 0 0 1 5.476-10.17 15.7 15.7 0 0 1 3.164-2.822 7.03 7.03 0 0 1 8.032-.056 17.3 17.3 0 0 1 5.84 6.731 53 53 0 0 1 5.263 14.677 112.5 112.5 0 0 1 2.122 33.004 95.6 95.6 0 0 1-3.49 19.91c7.121 1.312 14.21 2.33 21.147 3.978a186 186 0 0 1 20.44 6.003 188 188 0 0 1 19.77 8.57c6.346 3.163 12.386 6.94 18.718 10.537.206-.433.505-.95.706-1.502a108.66 108.66 0 0 1 32.901-46.762 37.8 37.8 0 0 1 11.822-6.883 17.3 17.3 0 0 1 3.679-.845c6.264-.717 8.893 3.224 9.356 7.932a30 30 0 0 1-.774 10.354 87.9 87.9 0 0 1-10.73 24.688c-6.79 10.972-14.85 20.855-25.093 28.83-.302.236-.568.519-1.08.99a177.8 177.8 0 0 1 26.593 30.883 11 11 0 0 1-1.689.298c-10.595.015-21.19-.019-31.786.046a4 4 0 0 1-3.172-1.69A147.88 147.88 0 0 0 272.35 108.3a143.4 143.4 0 0 0-30.28-1.169 146.4 146.4 0 0 0-82.537 31.81 140 140 0 0 0-16.976 15.843 4.73 4.73 0 0 1-3.863 1.757c-10.121-.07-20.242-.035-30.363-.035h-2.152c.618-2.408 6.84-10.938 13.883-18.553 5.252-5.679 10.817-11.07 16.468-16.818m258 226.777a176.6 176.6 0 0 1-23.974 27.164l1.862 1.55a108.3 108.3 0 0 1 33.683 48.146 34.6 34.6 0 0 1 2.202 14.42 15 15 0 0 1-.748 3.692 7.21 7.21 0 0 1-8.157 5.023 22.2 22.2 0 0 1-6.763-2.006 51.2 51.2 0 0 1-9.182-5.815 107.6 107.6 0 0 1-32.936-46.707c-.187-.514-.392-1.02-.722-1.877a195 195 0 0 1-25.012 14.008 182 182 0 0 1-26.687 9.724 187.6 187.6 0 0 1-28.305 5.388c.168.84.265 1.51.438 2.16a109.2 109.2 0 0 1 2.97 36.442 80.8 80.8 0 0 1-4.422 22.478 78 78 0 0 1-4.165 8.744 13.4 13.4 0 0 1-2.339 2.971c-3.98 4.11-8.732 4.144-12.611-.074a27.3 27.3 0 0 1-3.907-5.617c-3.077-5.776-4.66-12.056-5.791-18.46a117 117 0 0 1-1.36-26.465 94.5 94.5 0 0 1 2.885-19.186c.14-.532.268-1.07.372-1.61.026-.137-.064-.297-.171-.738a176.1 176.1 0 0 1-80.969-24.994c-.41.91-.762 1.675-1.101 2.446a110.5 110.5 0 0 1-30.901 41.42 38.2 38.2 0 0 1-12.047 6.96 12.1 12.1 0 0 1-6.516.7 7.12 7.12 0 0 1-5.403-4.49c-1.416-3.424-1.165-6.985-.684-10.517a55.5 55.5 0 0 1 4.307-14.25 112.5 112.5 0 0 1 26.512-37.763c.459-.435.93-.857 1.38-1.3a4 4 0 0 0 .366-.655 179 179 0 0 1-28.47-31.317c.985-.08 1.644-.18 2.303-.18 10.514-.01 21.029.027 31.543-.044a4.7 4.7 0 0 1 3.703 1.626 147 147 0 0 0 39.403 28.885 140 140 0 0 0 49.704 14.774q70.68 6.87 121.6-42.854a7.65 7.65 0 0 1 5.992-2.444c9.802.121 19.605.05 29.408.05h2.534Zm-43.794-150.15c2.787 0 5.47.189 8.115-.05 2.995-.271 5.139.8 7.323 2.813 12.613 11.622 25.357 23.1 38.059 34.627.638.58 1.29 1.144 2.11 1.87.764-.657 1.481-1.243 2.165-1.865q19.638-17.878 39.248-35.787a5.45 5.45 0 0 1 4.204-1.646c3.218.13 6.446.038 9.84.038V303.13c-1.722.504-24.875.604-27.638.061V249.83l-.537-.254-27.238 24.841-27.458-24.736-.524.192c-.023 4.454-.008 8.908-.01 13.362q-.005 6.64-.001 13.28v26.871h-27.428c-.514-1.773-.753-99.662-.23-105.623m-253.102.119h27.264c.55 1.753.658 102.972.094 105.525H97.705c-.15-6.703-.048-13.384-.067-20.061-.018-6.623-.004-13.245-.004-20.04H63.847v39.741c-2.06.615-25.334.674-27.648.123V197.894h27.538v37.19c1.968.568 30.924.673 33.872.129.009-2.978.02-6.027.024-9.076q.007-4.744.001-9.487zm59.942 105.486V198.195c1.617-.53 61.545-.736 65.462-.205v22.414c-.879.063-1.786.184-2.693.185q-16.008.02-32.017.009h-2.968v17.433h33.347v23.192h-33.049c-.553 1.985-.705 15.817-.256 19.646.845.057 1.75.17 2.655.17q16.01.019 32.018.009h2.97v22.32Zm96.707.041c-.5-2.823-.4-103.602.097-105.518h27.162v77.765c1.172.06 2.092.149 3.011.15q16.128.014 32.256.006h2.908v27.597Z" style="fill:#fff"/></svg>